<svg width="484" height="291" viewBox="0 0 484 291" fill="none" xmlns="http://www.w3.org/2000/svg">
<g clip-path="url(#clip0)">
<path d="M158.5 192.5L550 107L424 278.5L240.5 337.5L-46.7911 123L158.5 192.5Z" fill="#C73E1D"/>
<path d="M187.916 260.729C185.311 261.648 182.515 261.878 179.796 261.398C177.078 260.917 174.528 259.742 172.394 257.986C166.957 253.407 165.252 245.864 163.866 238.88L159.763 218.221L168.352 224.155C174.528 228.422 180.844 232.826 185.12 239.006C189.397 245.187 191.263 253.625 187.827 260.313" fill="#E6E6E6"/>
<path d="M187.181 285.741C188.051 279.388 188.945 272.953 188.335 266.532C187.793 260.829 186.059 255.259 182.529 250.692C180.655 248.272 178.375 246.199 175.791 244.566C175.118 244.139 174.498 245.211 175.168 245.635C179.639 248.47 183.097 252.657 185.044 257.591C187.194 263.078 187.539 269.059 187.168 274.888C186.944 278.413 186.47 281.915 185.991 285.412C185.953 285.57 185.977 285.737 186.057 285.878C186.137 286.02 186.267 286.125 186.422 286.174C186.58 286.217 186.748 286.195 186.89 286.114C187.032 286.033 187.137 285.899 187.181 285.741V285.741Z" fill="#F2F2F2"/>
<path d="M178.809 274.499C177.692 276.202 176.157 277.588 174.351 278.523C172.545 279.459 170.53 279.911 168.499 279.838C163.28 279.59 158.929 275.935 155.012 272.465L143.427 262.202L151.095 261.834C156.608 261.569 162.265 261.322 167.516 263.028C172.768 264.734 177.611 268.84 178.572 274.294" fill="#E6E6E6"/>
<path d="M189.638 289.394C185.454 281.965 180.601 273.71 171.93 271.071C169.519 270.34 166.99 270.078 164.481 270.299C163.69 270.368 163.888 271.591 164.677 271.523C168.883 271.172 173.081 272.286 176.564 274.678C179.915 276.967 182.525 280.149 184.734 283.524C186.086 285.591 187.298 287.746 188.51 289.898C188.898 290.586 190.03 290.089 189.638 289.393V289.394Z" fill="#F2F2F2"/>
<path d="M301.78 140.586L210.563 216.443C209.415 217.395 207.938 217.852 206.455 217.712C204.972 217.573 203.605 216.849 202.653 215.7L164.201 169.148C163.252 167.996 162.797 166.514 162.936 165.026C163.075 163.538 163.796 162.167 164.942 161.212L256.159 85.3549C257.306 84.4027 258.784 83.9461 260.266 84.0854C261.749 84.2246 263.116 84.9484 264.068 86.0979L302.52 132.65C303.469 133.801 303.924 135.284 303.786 136.771C303.647 138.259 302.926 139.631 301.78 140.586Z" fill="#CCCCCC"/>
<path d="M298.125 138.302L209.004 212.415C208.413 212.905 207.652 213.141 206.888 213.069C206.124 212.997 205.42 212.624 204.93 212.032L168.216 167.584C167.727 166.991 167.492 166.227 167.564 165.461C167.635 164.695 168.007 163.988 168.597 163.496L257.717 89.3829C258.308 88.8924 259.069 88.6572 259.833 88.7289C260.597 88.8007 261.301 89.1735 261.792 89.7657L298.506 134.213C298.995 134.807 299.229 135.57 299.158 136.337C299.086 137.103 298.715 137.81 298.125 138.302Z" fill="white"/>
<path d="M302.233 153.816L283.903 152.094L297.022 141.734L304.089 150.29C304.365 150.617 304.536 151.019 304.58 151.445C304.624 151.87 304.538 152.299 304.335 152.675C304.202 152.931 304.02 153.157 303.799 153.342C303.582 153.521 303.332 153.655 303.063 153.736C302.794 153.818 302.512 153.845 302.233 153.816V153.816Z" fill="#CCCCCC"/>
<path d="M265.424 120.873L220.339 158.365C220.064 158.594 219.746 158.767 219.404 158.872C219.063 158.978 218.704 159.016 218.347 158.982C217.991 158.949 217.645 158.845 217.329 158.678C217.013 158.51 216.733 158.281 216.504 158.005C216.276 157.729 216.104 157.41 215.999 157.067C215.893 156.724 215.856 156.364 215.89 156.007C215.923 155.649 216.026 155.302 216.193 154.985C216.36 154.667 216.588 154.386 216.863 154.157L261.948 116.665C262.223 116.436 262.541 116.263 262.882 116.158C263.224 116.052 263.583 116.015 263.939 116.048C264.296 116.081 264.642 116.185 264.958 116.353C265.274 116.52 265.554 116.749 265.783 117.025C266.011 117.301 266.183 117.62 266.288 117.963C266.393 118.306 266.431 118.666 266.397 119.024C266.364 119.381 266.261 119.728 266.094 120.045C265.927 120.363 265.699 120.644 265.424 120.873V120.873Z" fill="#CCCCCC"/>
<path d="M243.359 124.138L212.953 149.423C212.397 149.886 211.68 150.108 210.961 150.04C210.242 149.972 209.579 149.621 209.118 149.063C208.657 148.505 208.436 147.786 208.503 147.064C208.571 146.343 208.921 145.678 209.477 145.215L239.883 119.929C240.439 119.467 241.155 119.245 241.874 119.313C242.594 119.38 243.257 119.732 243.718 120.29C244.179 120.848 244.4 121.567 244.332 122.288C244.265 123.01 243.915 123.675 243.359 124.138Z" fill="#CCCCCC"/>
<path d="M196.245 175.85C200.946 175.85 204.756 172.027 204.756 167.31C204.756 162.594 200.946 158.771 196.245 158.771C191.545 158.771 187.734 162.594 187.734 167.31C187.734 172.027 191.545 175.85 196.245 175.85Z" fill="#C73E1D"/>
<path d="M263.947 150.192C265.451 150.192 266.671 148.969 266.671 147.46C266.671 145.95 265.451 144.727 263.947 144.727C262.443 144.727 261.223 145.95 261.223 147.46C261.223 148.969 262.443 150.192 263.947 150.192Z" fill="#E6E6E6"/>
<path d="M271.286 144.089C272.79 144.089 274.01 142.865 274.01 141.356C274.01 139.847 272.79 138.623 271.286 138.623C269.782 138.623 268.563 139.847 268.563 141.356C268.563 142.865 269.782 144.089 271.286 144.089Z" fill="#E6E6E6"/>
<path d="M278.626 137.986C280.13 137.986 281.349 136.762 281.349 135.253C281.349 133.744 280.13 132.52 278.626 132.52C277.121 132.52 275.902 133.744 275.902 135.253C275.902 136.762 277.121 137.986 278.626 137.986Z" fill="#E6E6E6"/>
<path d="M235.216 284.635L241.469 284.634L244.443 260.435L235.215 260.436L235.216 284.635Z" fill="#FFB8B8"/>
<path d="M233.621 282.586L245.935 282.586H245.935C246.966 282.586 247.986 282.789 248.938 283.185C249.89 283.581 250.755 284.161 251.484 284.892C252.213 285.623 252.791 286.491 253.185 287.446C253.58 288.402 253.782 289.426 253.782 290.46V290.715L233.621 290.716L233.621 282.586Z" fill="#2F2E41"/>
<path d="M212.775 284.635L219.028 284.634L222.002 260.435L212.774 260.436L212.775 284.635Z" fill="#FFB8B8"/>
<path d="M211.181 282.586L223.494 282.586H223.495C224.525 282.586 225.546 282.789 226.498 283.185C227.45 283.581 228.315 284.161 229.044 284.892C229.772 285.623 230.35 286.491 230.745 287.446C231.139 288.402 231.342 289.426 231.342 290.46V290.715L211.181 290.716L211.181 282.586Z" fill="#2F2E41"/>
<path d="M219.05 277.23H219.049L213.732 277.229C213.137 277.231 212.565 277 212.137 276.586C211.709 276.171 211.458 275.606 211.439 275.009L211.272 270.341C209.928 233.015 208.538 194.418 217.146 177.07L217.213 176.934L245.713 175.899L251.434 228.562C251.679 230.808 251.589 233.079 251.169 235.299L243.606 275.29C243.503 275.832 243.21 276.319 242.78 276.663C242.349 277.007 241.81 277.184 241.261 277.162L235.288 276.968C234.976 276.955 234.669 276.879 234.387 276.743C234.104 276.607 233.853 276.415 233.647 276.178C233.442 275.941 233.287 275.664 233.192 275.365C233.097 275.066 233.064 274.75 233.095 274.438L237.786 237.45C237.946 235.853 237.802 234.241 237.36 232.699L231.526 212.232C231.477 212.063 231.373 211.916 231.229 211.815C231.085 211.714 230.911 211.665 230.736 211.678C230.561 211.69 230.396 211.762 230.268 211.883C230.139 212.003 230.056 212.164 230.032 212.338L221.323 275.244C221.245 275.794 220.972 276.297 220.555 276.662C220.138 277.027 219.603 277.228 219.05 277.23V277.23Z" fill="#2F2E41"/>
<path d="M222.458 123.247C229.376 123.247 234.985 117.62 234.985 110.679C234.985 103.737 229.376 98.1098 222.458 98.1098C215.54 98.1098 209.932 103.737 209.932 110.679C209.932 117.62 215.54 123.247 222.458 123.247Z" fill="#FFB8B8"/>
<path d="M244.377 179.786H218.457C218.127 179.786 217.802 179.715 217.502 179.578C217.202 179.44 216.936 179.24 216.72 178.989C216.505 178.739 216.346 178.446 216.253 178.128C216.161 177.811 216.138 177.478 216.185 177.151L217.466 168.351L209.946 147.598C209.17 145.455 208.882 143.166 209.102 140.897C209.323 138.628 210.047 136.438 211.221 134.486C212.395 132.535 213.99 130.872 215.888 129.619C217.786 128.367 219.94 127.556 222.191 127.248V127.248C225.398 126.799 228.665 127.392 231.511 128.941C234.358 130.489 236.636 132.911 238.012 135.853L239.664 139.379L246.633 177.064C246.695 177.396 246.683 177.738 246.598 178.065C246.513 178.392 246.357 178.696 246.142 178.956C245.926 179.216 245.656 179.425 245.351 179.568C245.046 179.712 244.714 179.786 244.377 179.786H244.377Z" fill="#C73E1D"/>
<path d="M189.66 201.86C190.44 201.679 191.171 201.327 191.801 200.831C192.431 200.336 192.946 199.707 193.308 198.99C193.67 198.273 193.871 197.485 193.896 196.682C193.922 195.879 193.772 195.08 193.456 194.341L213.654 148.555L202.1 145.635L185.879 191.559C184.678 192.173 183.742 193.208 183.25 194.468C182.758 195.728 182.743 197.125 183.209 198.394C183.675 199.664 184.589 200.718 185.778 201.357C186.967 201.996 188.348 202.175 189.66 201.86H189.66Z" fill="#FFB8B8"/>
<path d="M210.92 156.743L199.683 151.465C199.363 151.315 199.079 151.098 198.851 150.828C198.622 150.558 198.455 150.241 198.359 149.9C198.264 149.559 198.242 149.202 198.297 148.852C198.352 148.502 198.481 148.168 198.676 147.872L205.505 137.524C206.281 135.888 207.671 134.627 209.371 134.018C211.072 133.408 212.943 133.5 214.576 134.273C216.209 135.046 217.47 136.437 218.083 138.141C218.696 139.845 218.611 141.723 217.846 143.364L214.315 155.217C214.214 155.557 214.041 155.87 213.808 156.137C213.575 156.403 213.288 156.616 212.965 156.76C212.643 156.905 212.294 156.979 211.941 156.976C211.588 156.973 211.24 156.893 210.92 156.743H210.92Z" fill="#C73E1D"/>
<path d="M273.914 84.0392C274.158 84.8047 274.232 85.6146 274.13 86.4118C274.028 87.2089 273.753 87.974 273.325 88.6531C272.897 89.3323 272.325 89.9089 271.651 90.3424C270.976 90.7759 270.215 91.0558 269.421 91.1623L240.571 132.017L232.154 123.554L263.16 86.0568C263.07 84.7067 263.477 83.3704 264.303 82.3011C265.13 81.2319 266.318 80.5039 267.644 80.2552C268.969 80.0066 270.34 80.2544 271.495 80.9518C272.651 81.6492 273.512 82.7477 273.914 84.0392V84.0392Z" fill="#FFB8B8"/>
<path d="M247.242 127.221C247.283 127.573 247.249 127.929 247.14 128.266C247.031 128.603 246.851 128.913 246.613 129.174L238.274 138.288C237.262 139.788 235.697 140.825 233.924 141.17C232.151 141.515 230.313 141.141 228.815 140.129C227.317 139.117 226.279 137.55 225.931 135.771C225.582 133.993 225.95 132.149 226.954 130.643L232.316 119.457C232.469 119.138 232.689 118.856 232.96 118.629C233.232 118.403 233.549 118.238 233.89 118.146C234.231 118.054 234.587 118.036 234.935 118.095C235.284 118.153 235.615 118.286 235.907 118.485L246.18 125.467C246.472 125.665 246.719 125.925 246.902 126.227C247.085 126.53 247.201 126.869 247.242 127.221V127.221Z" fill="#C73E1D"/>
<path d="M238.917 105.418C238.909 104.28 238.752 103.149 238.448 102.052C236.43 94.5696 228.98 90.0785 221.503 91.2055C220.049 90.7872 218.544 90.5757 217.031 90.5772V90.5772C213.183 90.5772 209.462 91.9579 206.539 94.4698C203.617 96.9818 201.686 100.459 201.095 104.275L195.056 143.286H227.697L232.967 109.243C233.163 107.977 233.209 106.694 233.104 105.418H238.917Z" fill="#2F2E41"/>
<path d="M279.486 291H171.874C171.738 291 171.609 290.946 171.513 290.85C171.417 290.754 171.364 290.624 171.364 290.488C171.364 290.353 171.417 290.222 171.513 290.126C171.609 290.03 171.738 289.977 171.874 289.977H279.486C279.621 289.977 279.751 290.03 279.846 290.126C279.942 290.222 279.996 290.353 279.996 290.488C279.996 290.624 279.942 290.754 279.846 290.85C279.751 290.946 279.621 291 279.486 291Z" fill="#CCCCCC"/>
<path d="M387.899 39.7453C388.645 39.6732 389.398 39.7662 390.105 40.0177C390.811 40.2693 391.454 40.6732 391.989 41.2011C392.523 41.7289 392.935 42.3679 393.197 43.073C393.458 43.778 393.562 44.532 393.502 45.2819L410.183 52.6483L402.226 57.8019L387.605 50.0165C386.357 49.8313 385.219 49.1928 384.408 48.2222C383.597 47.2516 383.169 46.0162 383.205 44.7501C383.241 43.484 383.739 42.2753 384.604 41.3528C385.469 40.4304 386.642 39.8585 387.899 39.7453V39.7453Z" fill="#A0616A"/>
<path d="M455.185 30.5561C462.103 30.5561 467.712 24.9289 467.712 17.9873C467.712 11.0458 462.103 5.41858 455.185 5.41858C448.267 5.41858 442.659 11.0458 442.659 17.9873C442.659 24.9289 448.267 30.5561 455.185 30.5561Z" fill="#A0616A"/>
<path d="M432.514 197.205L426.262 197.204L423.287 173.005L432.516 173.006L432.514 197.205Z" fill="#A0616A"/>
<path d="M434.109 203.286L413.948 203.285V203.029C413.948 201.995 414.151 200.971 414.545 200.016C414.94 199.061 415.518 198.193 416.246 197.462C416.975 196.731 417.84 196.151 418.792 195.755C419.744 195.359 420.765 195.156 421.795 195.156H421.796L434.109 195.156L434.109 203.286Z" fill="#2F2E41"/>
<path d="M458.525 197.205L452.272 197.204L449.298 173.005L458.526 173.006L458.525 197.205Z" fill="#A0616A"/>
<path d="M460.119 203.286L439.958 203.285V203.029C439.958 201.995 440.161 200.971 440.556 200.016C440.95 199.061 441.528 198.193 442.257 197.462C442.986 196.731 443.851 196.151 444.803 195.755C445.755 195.359 446.775 195.156 447.806 195.156H447.806L460.12 195.156L460.119 203.286Z" fill="#2F2E41"/>
<path d="M458.229 192.05C458.135 192.05 458.042 192.044 457.949 192.033L448.796 190.902C448.26 190.837 447.764 190.584 447.396 190.187C447.028 189.791 446.811 189.276 446.784 188.735L444.117 128.471C444.108 128.3 444.042 128.137 443.93 128.008C443.818 127.879 443.667 127.791 443.499 127.758C443.331 127.726 443.158 127.75 443.006 127.828C442.854 127.906 442.732 128.033 442.66 128.188L435.808 151.105L434.397 187.918C434.385 188.235 434.308 188.547 434.17 188.833C434.032 189.119 433.837 189.373 433.596 189.579C433.355 189.786 433.075 189.94 432.772 190.032C432.469 190.125 432.15 190.153 431.836 190.116L423.91 189.18C423.343 189.115 422.821 188.839 422.446 188.408C422.071 187.977 421.871 187.42 421.884 186.848L422.556 152.196L427.926 97.803L428.166 97.812L460.818 99.0748L460.524 189.755C460.522 190.364 460.279 190.948 459.849 191.378C459.419 191.809 458.836 192.05 458.229 192.05H458.229Z" fill="#2F2E41"/>
<path d="M459.581 104.045C459.561 104.045 459.541 104.045 459.521 104.045L426.636 103.18C426.314 103.172 425.997 103.095 425.706 102.956C425.415 102.816 425.157 102.617 424.948 102.37C424.739 102.124 424.584 101.836 424.493 101.525C424.403 101.215 424.378 100.889 424.422 100.568L430.741 53.9022C431.136 50.7512 432.188 47.7192 433.83 45.004C435.471 42.2888 437.665 39.9516 440.268 38.1448C442.558 36.5633 445.158 35.4918 447.895 35.0022C450.631 34.5126 453.44 34.6163 456.134 35.3063C467.612 38.2248 474.498 50.5919 471.483 62.8746L461.81 102.293C461.685 102.792 461.398 103.235 460.994 103.552C460.591 103.87 460.093 104.043 459.581 104.045V104.045Z" fill="#3F3D56"/>
<path d="M416.439 66.9884C414.272 66.9911 412.151 66.3588 410.337 65.1694L391.159 52.5449C390.879 52.3601 390.642 52.1158 390.465 51.8292C390.289 51.5426 390.177 51.2206 390.139 50.886C390.1 50.5515 390.135 50.2124 390.241 49.8928C390.347 49.5731 390.521 49.2807 390.752 49.0362L393.641 45.9758C393.956 45.6403 394.364 45.4078 394.813 45.3086C395.262 45.2094 395.73 45.248 396.156 45.4195L417.577 53.9786L437.421 39.7595C438.349 39.0946 439.405 38.6303 440.521 38.3958C441.637 38.1613 442.789 38.1618 443.905 38.3973C445.02 38.6327 446.075 39.098 447.003 39.7636C447.93 40.4292 448.71 41.2807 449.292 42.2642C449.875 43.2478 450.247 44.3419 450.386 45.4774C450.526 46.6128 450.429 47.765 450.101 48.8608C449.774 49.9567 449.223 50.9725 448.485 51.8439C447.746 52.7152 446.835 53.4233 445.809 53.9232L421.284 65.876C419.773 66.6099 418.117 66.9902 416.439 66.9884V66.9884Z" fill="#3F3D56"/>
<path d="M459.526 30.007C461.663 30.5134 464.241 30.9019 465.768 29.3188C466.039 29.02 466.281 28.6962 466.49 28.3516L468.487 25.2928C470.017 22.9496 471.573 20.5452 472.221 17.8205C472.593 16.2548 472.651 14.6306 472.392 13.0421C472.133 11.4537 471.562 9.93266 470.713 8.56746C469.863 7.20226 468.751 6.02009 467.442 5.08959C466.134 4.1591 464.653 3.49884 463.088 3.14717C460.107 2.4774 457.189 1.325 454.141 1.53521C451.093 1.74542 447.519 1.67641 444.961 0C445.121 0.74737 445.983 4.04957 445.983 4.04957C445.983 4.04957 442.136 7.5901 441.365 8.47293C442.375 8.02379 443.473 7.81291 444.577 7.85649C445.681 7.90007 446.76 8.19695 447.731 8.72431C448.703 9.25167 449.541 9.99549 450.181 10.8986C450.821 11.8017 451.246 12.84 451.424 13.9338C451.642 15.2775 451.514 16.7678 452.31 17.8707C453.066 18.9196 454.424 19.2871 455.564 19.8928C457.209 20.8328 458.464 22.3314 459.105 24.1184C459.745 25.9055 459.728 27.8632 459.056 29.6387L459.526 30.007Z" fill="#2F2E41"/>
<path d="M444.486 108.547H340.653C339.348 108.545 338.097 108.024 337.174 107.098C336.251 106.172 335.732 104.917 335.73 103.607V50.6168C335.732 49.3072 336.251 48.0516 337.174 47.1255C338.097 46.1995 339.348 45.6785 340.653 45.6771H444.486C445.791 45.6785 447.043 46.1995 447.965 47.1255C448.888 48.0516 449.408 49.3072 449.409 50.6168V103.607C449.408 104.917 448.888 106.172 447.965 107.098C447.043 108.024 445.791 108.545 444.486 108.547V108.547Z" fill="#CCCCCC"/>
<path d="M443.292 104.954H341.847C341.174 104.953 340.53 104.685 340.054 104.208C339.579 103.731 339.311 103.084 339.31 102.41V51.8144C339.311 51.1397 339.579 50.4929 340.054 50.0158C340.53 49.5387 341.174 49.2704 341.847 49.2697H443.292C443.965 49.2704 444.61 49.5387 445.085 50.0158C445.56 50.4929 445.828 51.1397 445.829 51.8144V102.41C445.828 103.084 445.56 103.731 445.085 104.208C444.61 104.685 443.965 104.953 443.292 104.954V104.954Z" fill="white"/>
<path d="M437.417 117.728L426.008 106.281L440.635 106.652V116.391C440.639 116.766 440.53 117.133 440.323 117.445C440.115 117.757 439.818 117.999 439.472 118.138C439.239 118.236 438.99 118.286 438.738 118.287C438.492 118.286 438.249 118.237 438.022 118.141C437.795 118.045 437.59 117.905 437.417 117.728V117.728Z" fill="#CCCCCC"/>
<path d="M430.941 74.843H379.621C378.988 74.843 378.381 74.5907 377.933 74.1416C377.486 73.6924 377.234 73.0832 377.234 72.448C377.234 71.8128 377.486 71.2036 377.933 70.7545C378.381 70.3053 378.988 70.053 379.621 70.053H430.941C431.574 70.053 432.181 70.3053 432.629 70.7545C433.076 71.2036 433.328 71.8128 433.328 72.448C433.328 73.0832 433.076 73.6924 432.629 74.1416C432.181 74.5907 431.574 74.843 430.941 74.843V74.843Z" fill="#CCCCCC"/>
<path d="M414.232 64.6641H379.621C379.307 64.6646 378.997 64.6029 378.707 64.4828C378.417 64.3626 378.153 64.1863 377.931 63.9639C377.709 63.7414 377.533 63.4772 377.413 63.1864C377.293 62.8956 377.231 62.5839 377.231 62.2691C377.231 61.9542 377.293 61.6425 377.413 61.3517C377.533 61.0609 377.709 60.7967 377.931 60.5743C378.153 60.3518 378.417 60.1755 378.707 60.0553C378.997 59.9352 379.307 59.8736 379.621 59.874H414.232C414.865 59.874 415.472 60.1264 415.92 60.5755C416.368 61.0247 416.619 61.6339 416.619 62.2691C416.619 62.9043 416.368 63.5134 415.92 63.9626C415.472 64.4118 414.865 64.6641 414.232 64.6641Z" fill="#CCCCCC"/>
<path d="M358.377 74.843C362.497 74.843 365.836 71.4921 365.836 67.3585C365.836 63.2249 362.497 59.874 358.377 59.874C354.257 59.874 350.918 63.2249 350.918 67.3585C350.918 71.4921 354.257 74.843 358.377 74.843Z" fill="#C73E1D"/>
<path d="M415.126 94.3498C416.444 94.3498 417.513 93.2775 417.513 91.9548C417.513 90.632 416.444 89.5598 415.126 89.5598C413.807 89.5598 412.739 90.632 412.739 91.9548C412.739 93.2775 413.807 94.3498 415.126 94.3498Z" fill="#E6E6E6"/>
<path d="M423.48 94.3498C424.798 94.3498 425.867 93.2775 425.867 91.9548C425.867 90.632 424.798 89.5598 423.48 89.5598C422.162 89.5598 421.093 90.632 421.093 91.9548C421.093 93.2775 422.162 94.3498 423.48 94.3498Z" fill="#E6E6E6"/>
<path d="M431.834 94.3498C433.153 94.3498 434.221 93.2775 434.221 91.9548C434.221 90.632 433.153 89.5598 431.834 89.5598C430.516 89.5598 429.447 90.632 429.447 91.9548C429.447 93.2775 430.516 94.3498 431.834 94.3498Z" fill="#E6E6E6"/>
<path d="M442.878 102.245C442.961 101.497 443.205 100.777 443.595 100.134C443.985 99.4917 444.511 98.9428 445.135 98.5261C445.759 98.1095 446.467 97.8352 447.209 97.7227C447.95 97.6102 448.707 97.6621 449.426 97.8749L460.026 82.999L463.425 91.8686L452.838 104.635C452.402 105.824 451.546 106.81 450.433 107.408C449.32 108.006 448.028 108.174 446.8 107.879C445.572 107.584 444.495 106.848 443.772 105.81C443.049 104.771 442.731 103.503 442.878 102.245H442.878Z" fill="#A0616A"/>
<path d="M455.02 101.442C454.853 101.456 454.686 101.452 454.52 101.43C454.187 101.385 453.868 101.267 453.585 101.085C453.303 100.903 453.064 100.661 452.885 100.376L450.645 96.8096C450.399 96.4203 450.275 95.9655 450.29 95.5046C450.306 95.0438 450.459 94.5982 450.731 94.2262L464.298 75.5205L455.48 52.7095C454.692 50.7024 454.722 48.4651 455.563 46.4799C456.403 44.4946 457.988 42.9203 459.975 42.0963V42.0963C461.097 41.6239 462.31 41.407 463.526 41.4611C464.743 41.5153 465.932 41.8392 467.008 42.4096C468.085 42.9799 469.022 43.7825 469.752 44.7597C470.483 45.7369 470.988 46.8643 471.232 48.061L476.704 74.8623C477.084 76.7524 476.972 78.7091 476.378 80.5429C475.783 82.3767 474.727 84.0255 473.312 85.3296L456.374 100.848C456.001 101.191 455.525 101.4 455.02 101.442V101.442Z" fill="#3F3D56"/>
<path d="M483.49 204.517H375.878C375.743 204.517 375.613 204.463 375.517 204.367C375.422 204.271 375.368 204.141 375.368 204.005C375.368 203.869 375.422 203.739 375.517 203.643C375.613 203.547 375.743 203.493 375.878 203.493H483.49C483.625 203.493 483.755 203.547 483.851 203.643C483.946 203.739 484 203.869 484 204.005C484 204.141 483.946 204.271 483.851 204.367C483.755 204.463 483.625 204.517 483.49 204.517Z" fill="#CCCCCC"/>
<path d="M130.878 77.1576H27.0449C25.7397 77.1561 24.4883 76.6352 23.5653 75.7091C22.6424 74.7831 22.1232 73.5275 22.1218 72.2178V19.2277C22.1232 17.918 22.6424 16.6624 23.5653 15.7364C24.4883 14.8103 25.7397 14.2894 27.0449 14.2879H130.878C132.183 14.2894 133.434 14.8103 134.357 15.7364C135.28 16.6624 135.799 17.918 135.801 19.2277V72.2178C135.799 73.5275 135.28 74.7831 134.357 75.7091C133.434 76.6352 132.183 77.1561 130.878 77.1576V77.1576Z" fill="#CCCCCC"/>
<path d="M129.684 73.5651H28.2384C27.566 73.5643 26.9213 73.296 26.4459 72.8189C25.9704 72.3418 25.703 71.695 25.7022 71.0203V20.4252C25.703 19.7505 25.9704 19.1037 26.4459 18.6267C26.9213 18.1496 27.566 17.8812 28.2384 17.8805H129.684C130.357 17.8812 131.001 18.1496 131.477 18.6267C131.952 19.1037 132.22 19.7505 132.22 20.4252V71.0203C132.22 71.695 131.952 72.3418 131.477 72.8189C131.001 73.296 130.357 73.5643 129.684 73.5651Z" fill="white"/>
<path d="M123.809 86.3392L112.4 74.8915L127.027 75.2626V85.0017C127.031 85.3767 126.922 85.7441 126.714 86.0559C126.507 86.3677 126.21 86.6094 125.863 86.7492C125.631 86.8467 125.382 86.8973 125.13 86.898C124.884 86.8972 124.641 86.8474 124.414 86.7514C124.187 86.6555 123.982 86.5154 123.809 86.3392V86.3392Z" fill="#CCCCCC"/>
<path d="M117.333 43.4539H66.0129C65.3798 43.4539 64.7727 43.2016 64.3251 42.7524C63.8774 42.3032 63.6259 41.6941 63.6259 41.0589C63.6259 40.4237 63.8774 39.8145 64.3251 39.3653C64.7727 38.9162 65.3798 38.6638 66.0129 38.6638H117.333C117.966 38.6638 118.573 38.9162 119.02 39.3653C119.468 39.8145 119.719 40.4237 119.719 41.0589C119.719 41.6941 119.468 42.3032 119.02 42.7524C118.573 43.2016 117.966 43.4539 117.333 43.4539V43.4539Z" fill="#CCCCCC"/>
<path d="M100.624 33.275H66.0129C65.3798 33.275 64.7727 33.0227 64.3251 32.5735C63.8774 32.1243 63.6259 31.5152 63.6259 30.88C63.6259 30.2448 63.8774 29.6356 64.3251 29.1864C64.7727 28.7373 65.3798 28.4849 66.0129 28.4849H100.624C101.257 28.4849 101.864 28.7373 102.312 29.1864C102.759 29.6356 103.011 30.2448 103.011 30.88C103.011 31.5152 102.759 32.1243 102.312 32.5735C101.864 33.0227 101.257 33.275 100.624 33.275V33.275Z" fill="#CCCCCC"/>
<path d="M44.7688 43.4538C48.8884 43.4538 52.228 40.1029 52.228 35.9693C52.228 31.8358 48.8884 28.4849 44.7688 28.4849C40.6492 28.4849 37.3095 31.8358 37.3095 35.9693C37.3095 40.1029 40.6492 43.4538 44.7688 43.4538Z" fill="#C73E1D"/>
<path d="M101.517 62.9607C102.836 62.9607 103.904 61.8884 103.904 60.5656C103.904 59.2429 102.836 58.1706 101.517 58.1706C100.199 58.1706 99.1304 59.2429 99.1304 60.5656C99.1304 61.8884 100.199 62.9607 101.517 62.9607Z" fill="#E6E6E6"/>
<path d="M109.872 62.9607C111.19 62.9607 112.259 61.8884 112.259 60.5656C112.259 59.2429 111.19 58.1706 109.872 58.1706C108.553 58.1706 107.485 59.2429 107.485 60.5656C107.485 61.8884 108.553 62.9607 109.872 62.9607Z" fill="#E6E6E6"/>
<path d="M118.226 62.9607C119.544 62.9607 120.613 61.8884 120.613 60.5656C120.613 59.2429 119.544 58.1706 118.226 58.1706C116.908 58.1706 115.839 59.2429 115.839 60.5656C115.839 61.8884 116.908 62.9607 118.226 62.9607Z" fill="#E6E6E6"/>
<path d="M126.572 9.19659C125.866 9.45141 125.225 9.85832 124.693 10.3887C124.161 10.919 123.752 11.5599 123.494 12.2662C123.236 12.9725 123.135 13.727 123.199 14.4765C123.263 15.2261 123.489 15.9525 123.863 16.6046L111.919 30.4164L121.308 31.6644L131.211 18.3571C132.261 17.6542 133.018 16.5893 133.337 15.364C133.657 14.1388 133.518 12.8384 132.946 11.7093C132.374 10.5801 131.41 9.70067 130.235 9.23757C129.06 8.77447 127.756 8.75989 126.572 9.19659V9.19659Z" fill="#FFB8B8"/>
<path d="M46.818 14.7262C47.0728 15.4337 47.1698 16.1887 47.1023 16.9379C47.0349 17.6872 46.8045 18.4125 46.4274 19.0627C46.0504 19.7129 45.5358 20.2723 44.92 20.7014C44.3042 21.1306 43.6021 21.419 42.8631 21.5464L39.8908 39.5883L32.9406 33.133L36.8287 16.9897C36.6977 15.73 37.0318 14.4658 37.7676 13.4367C38.5035 12.4076 39.59 11.6851 40.8213 11.406C42.0526 11.127 43.3432 11.3109 44.4484 11.9228C45.5536 12.5347 46.3967 13.5322 46.818 14.7262V14.7262Z" fill="#FFB8B8"/>
<path d="M65.4848 197.205L71.7376 197.204L74.712 173.005L65.4838 173.006L65.4848 197.205Z" fill="#FFB8B8"/>
<path d="M63.8899 195.156L76.2035 195.156H76.204C77.2345 195.156 78.2549 195.359 79.207 195.755C80.1591 196.151 81.0242 196.73 81.7528 197.462C82.4815 198.193 83.0596 199.061 83.4539 200.016C83.8483 200.971 84.0513 201.995 84.0512 203.029V203.285L63.8902 203.286L63.8899 195.156Z" fill="#2F2E41"/>
<path d="M33.3542 197.205L39.6069 197.204L42.5813 173.005L33.3532 173.006L33.3542 197.205Z" fill="#FFB8B8"/>
<path d="M31.7592 195.156L44.0728 195.156H44.0733C45.1038 195.156 46.1242 195.359 47.0763 195.755C48.0284 196.151 48.8935 196.73 49.6222 197.462C50.3509 198.193 50.9289 199.061 51.3232 200.016C51.7176 200.971 51.9206 201.995 51.9206 203.029V203.285L31.7596 203.286L31.7592 195.156Z" fill="#2F2E41"/>
<path d="M64.1796 31.9877C71.0977 31.9877 76.706 26.3605 76.706 19.4189C76.706 12.4774 71.0977 6.85016 64.1796 6.85016C57.2614 6.85016 51.6532 12.4774 51.6532 19.4189C51.6532 26.3605 57.2614 31.9877 64.1796 31.9877Z" fill="#FFB8B8"/>
<path d="M62.678 189.165L61.6423 122.944C61.6397 122.756 61.569 122.577 61.4434 122.438C61.3179 122.3 61.1463 122.212 60.9608 122.192C60.7753 122.171 60.5888 122.219 60.4364 122.327C60.2839 122.435 60.1761 122.596 60.1331 122.778L43.1543 187.551C43.0266 188.07 42.7253 188.528 42.301 188.85C41.8767 189.173 41.3549 189.339 40.8231 189.321L31.495 188.921C31.1779 188.907 30.867 188.828 30.5821 188.688C30.2971 188.547 30.0443 188.349 29.8396 188.106C29.6348 187.862 29.4826 187.579 29.3925 187.274C29.3024 186.968 29.2765 186.647 29.3162 186.331L43.7234 103.093L43.7529 102.859L83.8816 104.764L84.1433 104.776L75.5383 189.304C75.4931 189.883 75.2327 190.423 74.8087 190.818C74.3847 191.213 73.8282 191.433 73.2497 191.436H64.9728C64.3705 191.433 63.793 191.194 63.3641 190.77C62.9352 190.346 62.6889 189.77 62.678 189.165V189.165Z" fill="#2F2E41"/>
<path d="M94.3725 110.373L36.1407 105.578C35.7892 105.549 35.4491 105.439 35.1468 105.257C34.8444 105.075 34.588 104.825 34.3974 104.528C34.2068 104.23 34.0872 103.892 34.0478 103.541C34.0084 103.189 34.0503 102.833 34.1702 102.5L43.3406 77.0609L43.8683 46.8669C43.8874 45.7709 44.1233 44.6895 44.5622 43.6856C45.001 42.6817 45.6342 41.7752 46.425 41.0188C47.2157 40.2623 48.1483 39.6709 49.1686 39.2789C50.1889 38.8869 51.2766 38.7021 52.3686 38.7351L56.2411 35.213H70.4294L71.6648 36.8381L81.5372 38.3603C83.2957 38.6388 84.9182 39.4773 86.1654 40.752C87.4125 42.0267 88.2181 43.6699 88.4632 45.4392L96.8347 107.771C96.8783 108.096 96.8521 108.427 96.758 108.741C96.6638 109.055 96.5039 109.346 96.2888 109.593C96.0737 109.84 95.8085 110.038 95.5109 110.174C95.2133 110.31 94.8902 110.381 94.5632 110.381C94.4999 110.381 94.4363 110.379 94.3725 110.373Z" fill="#2F2E41"/>
<path d="M83.0268 41.2873L107.856 33.9881L119.093 19.1437C119.402 18.7349 119.839 18.4415 120.333 18.3102C120.828 18.1789 121.352 18.2173 121.823 18.4191L128.838 21.4281C129.138 21.5563 129.406 21.747 129.626 21.9873C129.846 22.2276 130.013 22.5121 130.115 22.822C130.217 23.1318 130.253 23.4599 130.219 23.7846C130.185 24.1092 130.083 24.4229 129.919 24.7049L121.522 39.1644C120.154 41.5297 118.073 43.3976 115.578 44.4982L86.3743 57.4515L83.0268 41.2873Z" fill="#2F2E41"/>
<path d="M35.3911 52.2062C33.9073 51.1337 32.724 49.6955 31.9554 48.0305C31.1868 46.3655 30.8588 44.5298 31.0031 42.7006L32.0927 28.2146C32.1377 27.636 32.3981 27.0956 32.8222 26.701C33.2463 26.3064 33.803 26.0866 34.3814 26.0852H34.4017L42.6291 26.1587C42.9662 26.1618 43.2984 26.2393 43.6022 26.3857C43.906 26.5322 44.174 26.744 44.387 27.0061C44.6001 27.2681 44.753 27.5741 44.8349 27.9021C44.9168 28.2302 44.9257 28.5723 44.8609 28.9042L43.3344 36.7192L54.2283 41.3378L45.0547 59.2451L35.3911 52.2062Z" fill="#2F2E41"/>
<path d="M71.4666 4.34777C71.4666 4.34777 58.367 -2.72965 51.2269 5.62322C44.0867 13.9761 53.9472 27.0381 53.9472 27.0381L67.997 28.8161C67.997 28.8161 68.507 19.2331 71.8522 19.4191C75.1973 19.6052 85.5863 7.51285 71.4666 4.34777Z" fill="#2F2E41"/>
<path d="M108.122 204.005H0.510011C0.374747 204.005 0.245024 203.951 0.149378 203.855C0.0537327 203.759 0 203.629 0 203.493C0 203.357 0.0537327 203.227 0.149378 203.131C0.245024 203.035 0.374747 202.981 0.510011 202.981H108.122C108.257 202.981 108.387 203.035 108.483 203.131C108.579 203.227 108.632 203.357 108.632 203.493C108.632 203.629 108.579 203.759 108.483 203.855C108.387 203.951 108.257 204.005 108.122 204.005Z" fill="#CCCCCC"/>
</g>
<defs>
<clipPath id="clip0">
<rect width="484" height="291" fill="white"/>
</clipPath>
</defs>
</svg>
