<svg width="777" height="668" viewBox="0 0 777 668" fill="none" xmlns="http://www.w3.org/2000/svg">
<path d="M19 668C63.1241 668 106.816 659.361 147.582 642.576C188.347 625.791 225.387 601.188 256.588 570.174C287.788 539.159 312.538 502.339 329.424 461.816C346.309 421.294 355 377.862 355 334C355 290.139 346.309 246.706 329.424 206.184C312.538 165.661 287.788 128.841 256.588 97.8263C225.387 66.8116 188.347 42.2093 147.582 25.4242C106.816 8.63918 63.1241 1.39248e-05 19 1.58306e-05L19 334L19 668Z" fill="#C73E1D"/>
<g clip-path="url(#clip0)">
<path d="M411.5 508C613.36 508 777 498.605 777 487.015C777 475.425 613.36 466.029 411.5 466.029C209.64 466.029 46 475.425 46 487.015C46 498.605 209.64 508 411.5 508Z" fill="#F2F2F2"/>
<path d="M711.491 88H162.406V105.439H711.491V88Z" fill="#F2F2F2"/>
<path d="M177.099 100.976C179.596 100.976 181.62 98.9551 181.62 96.4625C181.62 93.9698 179.596 91.9492 177.099 91.9492C174.603 91.9492 172.578 93.9698 172.578 96.4625C172.578 98.9551 174.603 100.976 177.099 100.976Z" fill="#F18F01"/>
<path d="M191.793 100.976C194.29 100.976 196.314 98.9551 196.314 96.4625C196.314 93.9698 194.29 91.9492 191.793 91.9492C189.296 91.9492 187.272 93.9698 187.272 96.4625C187.272 98.9551 189.296 100.976 191.793 100.976Z" fill="#F18F01"/>
<path d="M206.486 100.976C208.983 100.976 211.007 98.9551 211.007 96.4625C211.007 93.9698 208.983 91.9492 206.486 91.9492C203.989 91.9492 201.965 93.9698 201.965 96.4625C201.965 98.9551 203.989 100.976 206.486 100.976Z" fill="#F18F01"/>
<path d="M162.795 363.814L162.406 364.147V481.787H711.491V275.149L704.947 275.644L162.795 363.814Z" fill="#3F3D56"/>
<path d="M355.365 204.655H202.032V210.827H355.365V204.655Z" fill="#3F3D56"/>
<path d="M355.365 218.234H202.032V224.406H355.365V218.234Z" fill="#3F3D56"/>
<path d="M253.968 231.813H202.032V237.985H253.968V231.813Z" fill="#3F3D56"/>
<path d="M668.056 376.01H514.724V382.182H668.056V376.01Z" fill="white"/>
<path d="M668.056 389.589H514.724V395.761H668.056V389.589Z" fill="white"/>
<path d="M566.659 403.168H514.724V409.34H566.659V403.168Z" fill="white"/>
<path d="M419.457 476.096C422.788 476.096 425.489 473.401 425.489 470.075C425.489 466.75 422.788 464.054 419.457 464.054C416.126 464.054 413.426 466.75 413.426 470.075C413.426 473.401 416.126 476.096 419.457 476.096Z" fill="#F2F2F2"/>
<path d="M436.949 476.699C440.28 476.699 442.98 474.003 442.98 470.677C442.98 467.352 440.28 464.656 436.949 464.656C433.618 464.656 430.917 467.352 430.917 470.677C430.917 474.003 433.618 476.699 436.949 476.699Z" fill="#F2F2F2"/>
<path d="M454.44 477.301C457.771 477.301 460.471 474.605 460.471 471.28C460.471 467.954 457.771 465.258 454.44 465.258C451.109 465.258 448.408 467.954 448.408 471.28C448.408 474.605 451.109 477.301 454.44 477.301Z" fill="#F2F2F2"/>
<path d="M437.004 475.494C439.669 475.494 441.829 473.338 441.829 470.677C441.829 468.017 439.669 465.86 437.004 465.86C434.339 465.86 432.179 468.017 432.179 470.677C432.179 473.338 434.339 475.494 437.004 475.494Z" fill="#3F3D56"/>
<path d="M304.53 275.304H252.595V287.133H304.53V275.304Z" fill="#3F3D56"/>
<path d="M613.23 435.369H561.295V447.198H613.23V435.369Z" fill="white"/>
<path opacity="0.3" d="M278.856 317.147C298.697 317.147 314.782 301.09 314.782 281.282C314.782 261.474 298.697 245.417 278.856 245.417C259.014 245.417 242.929 261.474 242.929 281.282C242.929 301.09 259.014 317.147 278.856 317.147Z" fill="#F18F01"/>
<path opacity="0.3" d="M278.856 305.192C292.083 305.192 302.806 294.487 302.806 281.282C302.806 268.077 292.083 257.372 278.856 257.372C265.628 257.372 254.905 268.077 254.905 281.282C254.905 294.487 265.628 305.192 278.856 305.192Z" fill="#F18F01"/>
<path d="M278.855 297.886C288.041 297.886 295.488 290.452 295.488 281.282C295.488 272.112 288.041 264.678 278.855 264.678C269.67 264.678 262.223 272.112 262.223 281.282C262.223 290.452 269.67 297.886 278.855 297.886Z" fill="#F18F01"/>
<path opacity="0.3" d="M581.152 228.262C600.993 228.262 617.078 212.205 617.078 192.397C617.078 172.59 600.993 156.532 581.152 156.532C561.31 156.532 545.226 172.59 545.226 192.397C545.226 212.205 561.31 228.262 581.152 228.262Z" fill="#F18F01"/>
<path opacity="0.3" d="M581.152 216.307C594.38 216.307 605.103 205.603 605.103 192.397C605.103 179.192 594.38 168.487 581.152 168.487C567.924 168.487 557.201 179.192 557.201 192.397C557.201 205.603 567.924 216.307 581.152 216.307Z" fill="#F18F01"/>
<path d="M581.152 209.002C590.338 209.002 597.784 201.568 597.784 192.397C597.784 183.227 590.338 175.793 581.152 175.793C571.966 175.793 564.519 183.227 564.519 192.397C564.519 201.568 571.966 209.002 581.152 209.002Z" fill="#F18F01"/>
<path opacity="0.3" d="M587.555 477.211C607.397 477.211 623.482 461.154 623.482 441.346C623.482 421.539 607.397 405.481 587.555 405.481C567.714 405.481 551.629 421.539 551.629 441.346C551.629 461.154 567.714 477.211 587.555 477.211Z" fill="#F18F01"/>
<path opacity="0.3" d="M587.555 465.256C600.783 465.256 611.506 454.551 611.506 441.346C611.506 428.141 600.783 417.436 587.555 417.436C574.328 417.436 563.605 428.141 563.605 441.346C563.605 454.551 574.328 465.256 587.555 465.256Z" fill="#F18F01"/>
<path d="M587.555 457.951C596.741 457.951 604.188 450.517 604.188 441.346C604.188 432.176 596.741 424.742 587.555 424.742C578.369 424.742 570.923 432.176 570.923 441.346C570.923 450.517 578.369 457.951 587.555 457.951Z" fill="#F18F01"/>
<path d="M105.825 160.634L120.612 161.207L121.349 142.228L106.563 141.655L105.825 160.634Z" fill="#F18F01"/>
<path d="M173.265 208.124C173.265 208.124 193.743 198.357 193.415 206.792C193.087 215.227 172.774 220.777 172.774 220.777L173.265 208.124Z" fill="#FFB9B9"/>
<path d="M162.031 279.496C162.031 279.496 171.692 303.102 175.261 320.135C178.831 337.169 184.267 360.611 177.274 377.236C170.282 393.861 150.401 442.723 150.197 447.995C149.992 453.267 151.899 458.621 147.675 458.457C143.45 458.293 120.459 451.068 119.526 447.863C118.593 444.659 127.37 436.551 127.37 436.551L149.044 368.752L126.43 324.581L110.12 390.476L106.925 472.719C106.925 472.719 91.2458 467.888 88.9696 472.024C88.9696 472.024 81.9448 462.248 81.0525 457.99C80.1601 453.731 84.37 372.584 84.37 372.584C84.37 372.584 69.978 280.156 81.5961 280.606C93.2143 281.056 138.721 253.25 162.031 279.496Z" fill="#2F2E41"/>
<path d="M147.839 454.239C147.839 454.239 158.556 477.886 159.571 478.981C160.586 480.076 167.57 490.907 162.289 490.702C157.008 490.498 144.538 484.735 135.36 475.932C126.182 467.129 114.081 451.877 115.178 450.863C116.276 449.85 123.792 446.973 123.792 446.973L147.839 454.239Z" fill="#2F2E41"/>
<path d="M105.017 467.365C105.017 467.365 105.664 477.95 107.613 482.25C109.561 486.549 109.315 492.875 104.034 492.671C98.7534 492.466 85.1047 489.826 85.1047 489.826C85.1047 489.826 84.2943 483.459 85.3914 482.445C86.4886 481.432 91.1639 469.997 89.1744 466.752C87.1849 463.507 105.017 467.365 105.017 467.365Z" fill="#2F2E41"/>
<path d="M97.2045 123.869C97.2045 123.869 85.9463 141.385 81.5577 145.439C77.1691 149.493 89.5158 158.419 89.5158 158.419L111.614 161.386C111.614 161.386 111.336 141.312 112.474 139.244C113.612 137.176 97.2045 123.869 97.2045 123.869Z" fill="#FFB9B9"/>
<path d="M116.412 146.788C116.412 146.788 111.86 155.06 107.635 154.896C103.41 154.733 81.5577 145.439 80.6243 142.235C79.691 139.031 73.3861 165.186 73.3861 165.186L126.857 259.127L139.9 250.128L133.581 194.972L128.39 165.204L116.412 146.788Z" fill="#F18F01"/>
<path d="M78.6521 230.861C80.785 235.315 82.1172 239.96 81.9325 244.716C81.9243 244.927 81.9161 245.137 81.8973 245.348C81.3913 255.107 77.7902 266.393 76.4982 274.601C75.5607 280.489 75.8275 284.786 79.279 285.796C87.6466 288.232 78.0589 289.973 110.432 300.73C142.806 311.487 148.455 302.202 148.537 300.093C148.619 297.984 143.953 281.964 145.05 280.951C146.147 279.937 160.401 294.217 164.708 292.271C169.015 290.326 165.199 279.619 165.199 279.619C165.199 279.619 155.498 257.067 155.702 251.795C155.907 246.523 141.006 221.659 141.006 221.659L130.871 155.796C130.871 155.796 126.974 147.197 121.734 145.938C116.494 144.679 112.146 147.679 112.146 147.679L120.915 167.026L130.166 201.176L128.619 213.788C128.619 213.788 117.861 191.196 110.795 182.474C103.729 173.753 88.6644 153.106 88.6644 153.106C88.6644 153.106 85.1473 141.259 87.8023 137.719C90.4578 134.168 76.7273 133.636 70.8729 148.193C67.77 155.909 62.7324 167.414 59.5766 178.126C56.7645 187.616 55.4361 196.488 58.2221 201.559C62.4802 209.305 73.1914 219.488 78.6521 230.861Z" fill="#575A89"/>
<path opacity="0.1" d="M58.2221 201.559C62.4802 209.305 73.1914 219.488 78.652 230.861C80.0783 225.731 81.8183 220.424 81.8183 220.424C81.8183 220.424 88.4918 184.779 68.7518 175.567C65.4809 175.251 62.2097 176.163 59.5765 178.126C56.7644 187.616 55.4361 196.488 58.2221 201.559Z" fill="black"/>
<path d="M136.585 199.312L153.321 204.184L176.557 205.084L178.947 225.24L140.76 227.985C140.76 227.985 131.222 201.217 136.585 199.312Z" fill="#575A89"/>
<path d="M109.296 267.084C109.296 267.084 131.685 270.792 126.575 277.518C121.465 284.243 101.631 277.172 101.631 277.172L109.296 267.084Z" fill="#FFB9B9"/>
<path opacity="0.1" d="M81.8973 245.348C81.3913 255.107 77.7901 266.393 76.4982 274.601C83.6303 281.34 90.4125 287.283 92.9685 287.382C98.2495 287.587 106.74 286.859 109.868 288.036C112.995 289.213 114.83 269.221 114.83 269.221C114.83 269.221 112.963 262.813 104.636 259.322C99.016 256.961 88.2426 250.557 81.8973 245.348Z" fill="black"/>
<path d="M68.9975 169.24C68.9975 169.24 51.1241 166.436 52.0897 196.041C53.0553 225.646 50.2057 244.543 57.3942 250.102C64.5828 255.66 87.9333 280.851 93.2143 281.056C98.4953 281.26 106.986 280.533 110.113 281.71C113.241 282.887 115.075 262.894 115.075 262.894C115.075 262.894 113.209 256.486 104.882 252.996C96.5554 249.506 76.9382 237.131 77.102 232.913C77.2659 228.695 82.0641 214.097 82.0641 214.097C82.0641 214.097 88.7376 178.452 68.9975 169.24Z" fill="#575A89"/>
<path d="M112.966 149.805C125.808 149.805 136.219 139.412 136.219 126.591C136.219 113.77 125.808 103.377 112.966 103.377C100.123 103.377 89.7118 113.77 89.7118 126.591C89.7118 139.412 100.123 149.805 112.966 149.805Z" fill="#FFB9B9"/>
<path d="M128.623 93.3186C129.184 93.801 129.855 94.1375 130.578 94.2981C130.941 94.3627 131.314 94.2813 131.617 94.0719C131.92 93.8624 132.128 93.5418 132.195 93.18C132.727 94.2815 133.327 95.4554 134.413 96.0206C135.5 96.5858 137.179 96.1119 137.336 94.8991C137.494 95.8199 137.903 96.6798 138.516 97.3856C139.19 98.0271 140.412 98.189 141 97.4685C140.525 100.064 140.818 102.733 140.669 105.367C140.52 108.001 139.816 110.793 137.822 112.525C134.915 115.051 130.543 114.428 126.719 113.949C126.141 113.828 125.541 113.861 124.979 114.044C123.547 114.653 123.612 116.643 123.593 118.197C123.476 120.923 122.395 123.52 120.542 125.526C118.689 127.532 116.184 128.817 113.472 129.154C111.954 129.388 110.405 129.011 109.166 128.105C108.08 127.186 107.525 125.689 106.281 124.999C104.257 123.876 101.803 125.513 100.323 127.291C98.8433 129.069 97.3849 131.256 95.0926 131.581C92.0609 132.011 89.7518 128.927 88.6189 126.087C87.0559 122.106 86.3071 117.854 86.4166 113.58C86.5261 109.305 87.4917 105.096 89.2565 101.201C95.5868 87.4252 117.211 85.2463 128.623 93.3186Z" fill="#2F2E41"/>
<path d="M686.833 462.438C695.023 476.38 711.54 481.9 711.54 481.9C711.54 481.9 714.779 464.815 706.59 450.872C698.4 436.93 681.883 431.41 681.883 431.41C681.883 431.41 678.643 448.495 686.833 462.438Z" fill="#F2F2F2"/>
<path d="M691.944 457.571C706.107 465.402 712.04 481.751 712.04 481.751C712.04 481.751 695.01 485.403 680.847 477.572C666.684 469.741 660.751 453.393 660.751 453.393C660.751 453.393 677.78 449.74 691.944 457.571Z" fill="#F18F01"/>
</g>
<defs>
<clipPath id="clip0">
<rect width="731" height="420" fill="white" transform="translate(46 88)"/>
</clipPath>
</defs>
</svg>
