<svg width="431" height="317" viewBox="0 0 431 317" fill="none" xmlns="http://www.w3.org/2000/svg">
<g clip-path="url(#clip0)">
<path d="M-16 122L227 244L472 122L375 271.5L278.5 360.5L55 344L-16 122Z" fill="#4946FF" fill-opacity="0.62"/>
<path d="M428.613 18.795H2.38742C1.75445 18.7943 1.1476 18.5429 0.700024 18.0959C0.252445 17.6489 0.000691841 17.0428 0 16.4106V2.38446C0.000691841 1.75227 0.252445 1.14618 0.700024 0.699151C1.1476 0.252126 1.75445 0.000689565 2.38742 0H428.613C429.246 0.000690986 429.852 0.252134 430.3 0.699159C430.748 1.14618 430.999 1.75228 431 2.38446V16.4106C430.999 17.0428 430.748 17.6489 430.3 18.0959C429.852 18.5429 429.246 18.7943 428.613 18.795Z" fill="#E4E4E4"/>
<path d="M13.8552 12.0987C15.7272 12.0987 17.2448 10.583 17.2448 8.71336C17.2448 6.84368 15.7272 5.328 13.8552 5.328C11.9832 5.328 10.4657 6.84368 10.4657 8.71336C10.4657 10.583 11.9832 12.0987 13.8552 12.0987Z" fill="white"/>
<path d="M26.7208 12.0987C28.5928 12.0987 30.1104 10.583 30.1104 8.71336C30.1104 6.84368 28.5928 5.328 26.7208 5.328C24.8488 5.328 23.3313 6.84368 23.3313 8.71336C23.3313 10.583 24.8488 12.0987 26.7208 12.0987Z" fill="white"/>
<path d="M39.587 12.0987C41.459 12.0987 42.9765 10.583 42.9765 8.71336C42.9765 6.84368 41.459 5.328 39.587 5.328C37.715 5.328 36.1974 6.84368 36.1974 8.71336C36.1974 10.583 37.715 12.0987 39.587 12.0987Z" fill="white"/>
<path d="M416.007 6.38329H401.192C400.901 6.38265 400.623 6.26688 400.417 6.0614C400.212 5.85592 400.097 5.5775 400.097 5.28722C400.097 4.99695 400.212 4.71853 400.417 4.51305C400.623 4.30757 400.901 4.1918 401.192 4.19116H416.007C416.298 4.19095 416.577 4.30606 416.783 4.51119C416.989 4.71631 417.105 4.9947 417.105 5.28517C417.106 5.57564 416.991 5.85445 416.786 6.06035C416.581 6.26625 416.302 6.3824 416.011 6.38329H416.007Z" fill="white"/>
<path d="M416.007 10.4935H401.192C400.901 10.4929 400.623 10.3771 400.417 10.1716C400.212 9.96615 400.097 9.68773 400.097 9.39746C400.097 9.10718 400.212 8.82876 400.417 8.62328C400.623 8.4178 400.901 8.30203 401.192 8.30139H416.007C416.298 8.30118 416.577 8.41629 416.783 8.62142C416.989 8.82654 417.105 9.10492 417.105 9.3954C417.106 9.68587 416.991 9.96468 416.786 10.1706C416.581 10.3765 416.302 10.4926 416.011 10.4935H416.007Z" fill="white"/>
<path d="M416.007 14.6037H401.192C400.901 14.6037 400.622 14.4883 400.416 14.2827C400.21 14.0772 400.094 13.7984 400.094 13.5077C400.094 13.217 400.21 12.9382 400.416 12.7327C400.622 12.5271 400.901 12.4116 401.192 12.4116H416.007C416.298 12.4111 416.577 12.526 416.784 12.7312C416.99 12.9364 417.106 13.2149 417.107 13.5056C417.107 13.7963 416.992 14.0753 416.787 14.2813C416.581 14.4872 416.302 14.6032 416.011 14.6037H416.007Z" fill="white"/>
<path d="M121.532 278.721C123.101 266.125 130.917 253.714 142.944 249.615C138.201 262.58 138.202 276.803 142.947 289.767C144.795 294.76 147.372 300.121 145.633 305.153C144.551 308.284 141.905 310.68 138.948 312.178C135.99 313.676 132.707 314.39 129.465 315.089L128.827 315.616C123.681 304.011 119.964 291.317 121.532 278.721Z" fill="#F0F0F0"/>
<path d="M143.064 249.854C136.059 257.692 131.706 267.535 130.622 277.986C130.349 280.231 130.431 282.506 130.867 284.725C131.362 286.874 132.423 288.851 133.941 290.452C135.327 291.972 136.921 293.367 137.912 295.198C138.406 296.142 138.694 297.181 138.758 298.244C138.821 299.308 138.659 300.373 138.282 301.369C137.407 303.877 135.681 305.921 133.925 307.861C131.974 310.015 129.914 312.222 129.085 315.078C128.984 315.424 128.453 315.248 128.553 314.902C129.996 309.934 134.825 307.111 137.128 302.636C138.203 300.547 138.654 298.123 137.646 295.919C136.765 293.991 135.123 292.551 133.707 291.023C132.203 289.484 131.099 287.6 130.492 285.536C129.944 283.346 129.774 281.078 129.988 278.831C130.39 273.763 131.586 268.79 133.534 264.093C135.728 258.721 138.826 253.763 142.693 249.434C142.933 249.166 143.302 249.587 143.064 249.854L143.064 249.854Z" fill="white"/>
<path d="M130.773 274.6C129.042 274.18 127.517 273.16 126.47 271.721C125.423 270.282 124.922 268.518 125.057 266.744C125.063 266.672 125.097 266.605 125.152 266.557C125.207 266.509 125.278 266.485 125.35 266.488C125.423 266.492 125.491 266.523 125.541 266.576C125.591 266.629 125.618 266.699 125.617 266.772C125.488 268.423 125.955 270.066 126.932 271.404C127.91 272.743 129.334 273.687 130.948 274.069C131.299 274.152 131.121 274.683 130.773 274.6Z" fill="white"/>
<path d="M133.137 289.773C136.263 287.909 138.571 284.936 139.6 281.448C139.702 281.103 140.234 281.278 140.132 281.624C139.054 285.251 136.646 288.34 133.389 290.273C133.079 290.457 132.828 289.956 133.137 289.773Z" fill="white"/>
<path d="M136.248 259.251C136.883 259.553 137.584 259.692 138.287 259.656C138.99 259.621 139.673 259.411 140.275 259.047C140.584 258.859 140.833 259.36 140.527 259.546C139.86 259.946 139.106 260.176 138.329 260.217C137.552 260.259 136.777 260.109 136.072 259.782C136.003 259.757 135.946 259.706 135.913 259.641C135.88 259.575 135.873 259.499 135.894 259.429C135.917 259.359 135.968 259.3 136.034 259.267C136.1 259.234 136.177 259.228 136.248 259.251Z" fill="white"/>
<path d="M179.606 272.113C179.417 272.236 179.228 272.359 179.039 272.486C176.506 274.15 174.112 276.016 171.882 278.067C171.707 278.223 171.532 278.383 171.362 278.544C166.041 283.542 161.695 289.483 158.546 296.065C157.295 298.685 156.246 301.397 155.407 304.176C154.249 308.015 153.299 312.269 151.006 315.409C150.77 315.739 150.515 316.054 150.24 316.353H129.52C129.473 316.329 129.426 316.31 129.379 316.287L128.551 316.325C128.585 316.178 128.622 316.027 128.656 315.881C128.674 315.796 128.698 315.711 128.717 315.626C128.731 315.569 128.745 315.513 128.755 315.461C128.759 315.442 128.764 315.423 128.769 315.409C128.778 315.357 128.793 315.31 128.802 315.262C129.01 314.417 129.224 313.572 129.445 312.727C129.445 312.722 129.445 312.722 129.45 312.717C131.069 306.262 133.449 300.02 136.54 294.124C136.635 293.95 136.73 293.77 136.834 293.596C138.265 290.986 139.908 288.497 141.745 286.155C142.756 284.875 143.83 283.648 144.965 282.477C147.902 279.457 151.297 276.917 155.024 274.951C162.456 271.032 171.059 269.53 179.001 271.924C179.204 271.986 179.403 272.047 179.606 272.113Z" fill="#F0F0F0"/>
<path d="M179.56 272.376C169.242 274.422 159.832 279.664 152.667 287.356C151.095 288.985 149.79 290.85 148.8 292.885C147.899 294.898 147.555 297.115 147.803 299.306C147.992 301.353 148.424 303.425 148.112 305.483C147.937 306.534 147.541 307.536 146.951 308.424C146.361 309.311 145.589 310.064 144.687 310.633C142.477 312.109 139.867 312.703 137.295 313.196C134.439 313.743 131.464 314.266 129.08 316.048C128.791 316.264 128.473 315.804 128.761 315.588C132.908 312.488 138.466 313.139 143.002 310.95C145.119 309.929 146.941 308.265 147.465 305.899C147.924 303.83 147.481 301.692 147.271 299.621C146.998 297.487 147.252 295.319 148.012 293.307C148.895 291.228 150.126 289.315 151.652 287.65C155.027 283.845 158.98 280.594 163.367 278.015C168.357 275.045 173.819 272.949 179.516 271.818C179.869 271.748 179.91 272.306 179.559 272.376H179.56Z" fill="white"/>
<path d="M154.828 284.744C153.699 283.368 153.097 281.636 153.128 279.857C153.16 278.079 153.823 276.369 155 275.034C155.239 274.765 155.67 275.123 155.43 275.393C154.332 276.634 153.714 278.227 153.688 279.883C153.662 281.539 154.23 283.15 155.289 284.425C155.518 284.703 155.057 285.019 154.828 284.744Z" fill="white"/>
<path d="M147.57 298.28C151.189 298.672 154.824 297.686 157.748 295.52C158.038 295.305 158.356 295.765 158.067 295.98C155.02 298.228 151.235 299.246 147.47 298.831C147.111 298.791 147.213 298.241 147.57 298.28Z" fill="white"/>
<path d="M168.452 275.78C168.778 276.404 169.254 276.936 169.837 277.331C170.419 277.725 171.091 277.968 171.791 278.039C172.151 278.075 172.048 278.625 171.691 278.59C170.918 278.508 170.176 278.238 169.532 277.804C168.887 277.369 168.358 276.784 167.992 276.099C167.952 276.037 167.937 275.963 167.95 275.89C167.963 275.818 168.004 275.753 168.063 275.71C168.124 275.668 168.199 275.652 168.272 275.665C168.345 275.678 168.41 275.72 168.452 275.78L168.452 275.78Z" fill="white"/>
<path d="M139.7 97.7973H71.1492C69.0309 97.7948 67 96.9533 65.5021 95.4572C64.0042 93.9611 63.1616 91.9327 63.1592 89.8169V52.5271C63.1616 50.4114 64.0042 48.383 65.5021 46.887C67 45.391 69.0309 44.5495 71.1492 44.5472H139.7C141.818 44.5495 143.849 45.391 145.347 46.887C146.845 48.383 147.687 50.4114 147.69 52.5271V89.8169C147.687 91.9326 146.845 93.9611 145.347 95.4572C143.849 96.9533 141.818 97.7948 139.7 97.7973V97.7973Z" fill="#E6E6E6"/>
<path d="M244.357 97.7973H175.806C173.688 97.7948 171.657 96.9533 170.159 95.4572C168.661 93.9611 167.819 91.9327 167.816 89.8169V52.5271C167.819 50.4114 168.661 48.383 170.159 46.887C171.657 45.391 173.688 44.5495 175.806 44.5472H244.357C246.475 44.5495 248.506 45.391 250.004 46.887C251.502 48.383 252.344 50.4114 252.347 52.5271V89.8169C252.344 91.9326 251.502 93.9611 250.004 95.4572C248.506 96.9533 246.475 97.7948 244.357 97.7973Z" fill="#6C63FF"/>
<path d="M349.014 97.7973H280.463C278.345 97.7948 276.314 96.9533 274.816 95.4572C273.318 93.9611 272.476 91.9327 272.473 89.8169V52.5271C272.476 50.4114 273.318 48.383 274.816 46.887C276.314 45.391 278.345 44.5495 280.463 44.5472H349.014C351.132 44.5495 353.163 45.391 354.661 46.887C356.159 48.383 357.001 50.4114 357.004 52.5271V89.8169C357.001 91.9326 356.159 93.9611 354.661 95.4572C353.163 96.9533 351.132 97.7948 349.014 97.7973Z" fill="#E6E6E6"/>
<path d="M139.7 180.883H71.1492C69.0309 180.881 67 180.039 65.5021 178.543C64.0042 177.047 63.1616 175.019 63.1592 172.903V135.613C63.1616 133.497 64.0042 131.469 65.5021 129.973C67 128.477 69.0309 127.636 71.1492 127.633H139.7C141.818 127.636 143.849 128.477 145.347 129.973C146.845 131.469 147.687 133.497 147.69 135.613V172.903C147.687 175.019 146.845 177.047 145.347 178.543C143.849 180.039 141.818 180.881 139.7 180.883Z" fill="#F2F2F2"/>
<path d="M244.357 180.883H175.806C173.688 180.881 171.657 180.039 170.159 178.543C168.661 177.047 167.819 175.019 167.816 172.903V135.613C167.819 133.497 168.661 131.469 170.159 129.973C171.657 128.477 173.688 127.636 175.806 127.633H244.357C246.475 127.636 248.506 128.477 250.004 129.973C251.502 131.469 252.344 133.497 252.347 135.613V172.903C252.344 175.019 251.502 177.047 250.004 178.543C248.506 180.039 246.475 180.881 244.357 180.883Z" fill="#E6E6E6"/>
<path d="M249.197 187.745C255.959 187.745 261.44 182.27 261.44 175.517C261.44 168.763 255.959 163.289 249.197 163.289C242.435 163.289 236.954 168.763 236.954 175.517C236.954 182.27 242.435 187.745 249.197 187.745Z" fill="#6C63FF"/>
<path d="M254.281 174.49H250.118V170.332C250.118 170.204 250.093 170.077 250.044 169.958C249.995 169.839 249.923 169.731 249.832 169.641C249.741 169.55 249.633 169.478 249.514 169.428C249.395 169.379 249.268 169.354 249.139 169.354V169.354C249.01 169.354 248.883 169.379 248.764 169.428C248.645 169.478 248.537 169.55 248.446 169.641C248.355 169.731 248.283 169.839 248.234 169.958C248.185 170.077 248.159 170.204 248.159 170.332V174.49H243.997C243.868 174.49 243.741 174.515 243.622 174.564C243.503 174.614 243.395 174.686 243.304 174.776C243.213 174.867 243.141 174.975 243.092 175.094C243.043 175.213 243.017 175.34 243.017 175.468V175.468C243.017 175.597 243.043 175.724 243.092 175.843C243.141 175.961 243.213 176.069 243.304 176.16C243.395 176.251 243.503 176.323 243.622 176.372C243.741 176.421 243.868 176.447 243.997 176.447H248.159V180.604C248.159 180.733 248.185 180.86 248.234 180.979C248.283 181.097 248.355 181.205 248.446 181.296C248.537 181.387 248.645 181.459 248.764 181.508C248.883 181.557 249.01 181.583 249.139 181.583V181.583C249.399 181.583 249.648 181.479 249.832 181.296C250.015 181.113 250.119 180.864 250.119 180.604V176.447H254.281C254.41 176.447 254.537 176.421 254.656 176.372C254.775 176.323 254.883 176.251 254.974 176.16C255.065 176.069 255.137 175.961 255.186 175.843C255.235 175.724 255.261 175.597 255.261 175.468V175.468C255.261 175.34 255.235 175.213 255.186 175.094C255.137 174.975 255.065 174.867 254.974 174.776C254.883 174.686 254.775 174.614 254.656 174.564C254.537 174.515 254.41 174.49 254.281 174.49V174.49L254.281 174.49Z" fill="white"/>
<path d="M355.464 106.803C362.226 106.803 367.707 101.328 367.707 94.5749C367.707 87.8215 362.226 82.3467 355.464 82.3467C348.702 82.3467 343.221 87.8215 343.221 94.5749C343.221 101.328 348.702 106.803 355.464 106.803Z" fill="#6C63FF"/>
<path d="M360.548 93.548H356.386V89.3905C356.386 89.262 356.36 89.1347 356.311 89.0161C356.262 88.8974 356.19 88.7895 356.099 88.6987C356.008 88.6078 355.9 88.5358 355.781 88.4866C355.662 88.4374 355.535 88.4121 355.406 88.4121V88.4121C355.277 88.4121 355.15 88.4374 355.031 88.4866C354.912 88.5358 354.804 88.6078 354.713 88.6987C354.622 88.7895 354.55 88.8974 354.501 89.0161C354.452 89.1347 354.426 89.262 354.426 89.3905V93.548H350.264C350.135 93.548 350.008 93.5733 349.889 93.6225C349.77 93.6717 349.662 93.7437 349.571 93.8346C349.48 93.9254 349.408 94.0333 349.359 94.152C349.31 94.2707 349.284 94.3979 349.284 94.5263V94.5263C349.284 94.6548 349.31 94.7821 349.359 94.9007C349.408 95.0194 349.48 95.1273 349.571 95.2181C349.662 95.309 349.77 95.381 349.889 95.4302C350.008 95.4794 350.135 95.5047 350.264 95.5047H354.427V99.6623C354.427 99.7907 354.452 99.918 354.501 100.037C354.55 100.155 354.622 100.263 354.713 100.354C354.804 100.445 354.912 100.517 355.031 100.566C355.15 100.615 355.277 100.641 355.406 100.641V100.641C355.666 100.641 355.915 100.538 356.099 100.354C356.282 100.171 356.386 99.9217 356.386 99.6623V95.5047H360.548C360.677 95.5047 360.804 95.4793 360.923 95.4302C361.042 95.381 361.15 95.309 361.241 95.2181C361.332 95.1273 361.404 95.0194 361.453 94.9007C361.502 94.782 361.528 94.6548 361.528 94.5263V94.5263C361.528 94.3978 361.502 94.2706 361.453 94.1519C361.404 94.0332 361.332 93.9254 361.241 93.8345C361.15 93.7437 361.042 93.6716 360.923 93.6225C360.804 93.5733 360.677 93.548 360.548 93.548V93.548L360.548 93.548Z" fill="white"/>
<path d="M144.54 105.731C151.302 105.731 156.783 100.256 156.783 93.5029C156.783 86.7494 151.302 81.2747 144.54 81.2747C137.778 81.2747 132.297 86.7494 132.297 93.5029C132.297 100.256 137.778 105.731 144.54 105.731Z" fill="#6C63FF"/>
<path d="M149.624 92.476H145.462V88.3184C145.462 88.19 145.436 88.0627 145.387 87.944C145.338 87.8253 145.266 87.7175 145.175 87.6266C145.084 87.5358 144.976 87.4637 144.857 87.4146C144.738 87.3654 144.611 87.3401 144.482 87.3401V87.3401C144.353 87.3401 144.226 87.3654 144.107 87.4146C143.988 87.4637 143.88 87.5358 143.789 87.6266C143.698 87.7175 143.626 87.8253 143.577 87.944C143.528 88.0627 143.502 88.19 143.502 88.3184V88.3184V92.476H139.34C139.211 92.476 139.084 92.5013 138.965 92.5505C138.846 92.5996 138.738 92.6717 138.647 92.7626C138.556 92.8534 138.484 92.9612 138.435 93.0799C138.386 93.1986 138.36 93.3258 138.36 93.4543V93.4543C138.36 93.7138 138.463 93.9626 138.647 94.1461C138.831 94.3296 139.08 94.4327 139.34 94.4327H143.502V98.5902C143.502 98.7187 143.528 98.8459 143.577 98.9646C143.626 99.0833 143.698 99.1912 143.789 99.282C143.88 99.3729 143.988 99.4449 144.107 99.4941C144.226 99.5433 144.353 99.5686 144.482 99.5686V99.5686C144.611 99.5686 144.738 99.5433 144.857 99.4941C144.976 99.4449 145.084 99.3729 145.175 99.282C145.266 99.1912 145.338 99.0833 145.387 98.9646C145.436 98.846 145.462 98.7187 145.462 98.5902V94.4326H149.624C149.753 94.4326 149.88 94.4073 149.999 94.3582C150.118 94.309 150.226 94.2369 150.317 94.1461C150.408 94.0552 150.48 93.9474 150.529 93.8287C150.578 93.71 150.604 93.5828 150.604 93.4543V93.4543C150.604 93.1948 150.501 92.946 150.317 92.7625C150.133 92.579 149.884 92.476 149.624 92.476V92.476V92.476Z" fill="white"/>
<path d="M236.204 76.6105C236.427 77.2853 236.5 78.0009 236.416 78.7067C236.333 79.4125 236.095 80.0915 235.721 80.6958C235.346 81.3001 234.843 81.8151 234.248 82.2043C233.653 82.5936 232.979 82.8478 232.275 82.9489L226.613 121.544L217.327 117.014L226.667 78.4888C226.576 77.2956 226.925 76.1104 227.65 75.1576C228.375 74.2048 229.425 73.5507 230.6 73.3192C231.776 73.0877 232.995 73.2948 234.028 73.9014C235.061 74.5081 235.835 75.4719 236.204 76.6105L236.204 76.6105Z" fill="#9E616A"/>
<path d="M168.586 200.221C169 199.643 169.281 198.981 169.411 198.282C169.54 197.583 169.515 196.864 169.336 196.176C169.157 195.488 168.83 194.848 168.377 194.3C167.923 193.752 167.355 193.31 166.712 193.005L170.532 151.952L162.532 156.047L160.034 195.607C159.593 196.72 159.576 197.955 159.986 199.08C160.396 200.204 161.204 201.139 162.259 201.708C163.313 202.277 164.539 202.439 165.705 202.165C166.872 201.891 167.897 201.2 168.586 200.221H168.586Z" fill="#9E616A"/>
<path d="M174.051 179.457L208.379 178.139L210.36 142.534H170.751L174.051 179.457Z" fill="#9E616A"/>
<path d="M167.68 305.196L173.546 305.196L176.337 282.598H167.679L167.68 305.196Z" fill="#9E616A"/>
<path d="M166.225 302.306L175.498 301.753V305.721L184.314 311.803C184.75 312.103 185.078 312.534 185.25 313.034C185.423 313.534 185.431 314.075 185.273 314.58C185.116 315.085 184.801 315.526 184.375 315.839C183.949 316.152 183.433 316.321 182.904 316.321H171.864L169.961 312.396L169.218 316.321H165.056L166.225 302.306Z" fill="#2F2E41"/>
<path d="M193.772 305.196L199.638 305.196L202.428 282.598H193.77L193.772 305.196Z" fill="#9E616A"/>
<path d="M173.575 171.099C173.575 171.099 163.304 179.381 168.872 208.959C168.024 209.06 168.984 210.729 168.984 210.729L169.788 234.829L170.409 237.591L168.344 242.048L169.195 246.891L166.572 290.841L176.263 292.093L185.538 246.453L187.304 241.322L189.075 236.824L188.12 232.027L188.903 224.583L194.25 199.481L195.559 243.017L193.733 247.173L194.749 251.736L192.485 254.158L191.59 294.891L201.923 295.374L210.474 254.312L209.811 249.072L210.948 245.197V236.147L212.897 231.876L217.144 208.587C217.144 208.587 218.425 190.384 209.076 168.963L173.575 171.099Z" fill="#2F2E41"/>
<path d="M177.761 112.944C177.761 112.944 164.788 115.506 162.553 126.556C160.318 137.606 158.879 162.612 158.879 162.612L159.369 166.094L171.918 169L179.927 133.963L177.761 112.944Z" fill="#3F3D56"/>
<path d="M207.367 116.674C207.367 116.674 208.682 114.833 216.047 114.549C216.35 114.538 215.974 113.937 215.974 113.937L219.516 96.6482L231.318 103.175L229.326 121.3L209.932 143.331L207.367 116.674Z" fill="#3F3D56"/>
<path d="M200.011 168.214C194.454 168.215 186.091 167.602 173.5 165.735C172.689 165.613 171.938 165.235 171.358 164.657C170.777 164.078 170.397 163.329 170.272 162.52C169.861 162.086 169.594 161.537 169.506 160.946C169.419 160.355 169.515 159.752 169.783 159.218L169.795 159.195L169.51 158.859C169.068 158.341 168.809 157.693 168.772 157.015C168.734 156.336 168.921 155.663 169.302 155.1L165.403 127.24C165.007 124.473 165.613 121.656 167.111 119.296C168.609 116.936 170.901 115.187 173.576 114.364L175.015 113.916L180.458 106.805L180.566 106.806L198.041 107.038L203.712 114.231L212.88 116.39L212.904 116.529L215.032 128.812C216.139 135.2 213.6 137.713 210.36 143.331L211.311 159.109L211.742 159.892C211.982 160.326 212.062 160.829 211.969 161.315C211.876 161.802 211.616 162.24 211.234 162.555C211.523 163.381 211.543 164.276 211.29 165.113L211.066 165.853C211.066 165.875 211.006 166.176 210.522 166.543C209.65 167.205 207.144 168.214 200.011 168.214Z" fill="#3F3D56"/>
<path d="M192.316 302.306L201.589 301.753V305.721L210.406 311.803C210.841 312.103 211.169 312.534 211.342 313.034C211.514 313.534 211.522 314.075 211.365 314.58C211.207 315.085 210.892 315.526 210.466 315.839C210.04 316.152 209.525 316.321 208.995 316.321H197.956L196.053 312.396L195.31 316.321H191.147L192.316 302.306Z" fill="#2F2E41"/>
<path d="M202.056 91.3075C203.268 83.8481 198.196 76.8197 190.727 75.6092C183.258 74.3987 176.221 79.4645 175.009 86.924C173.797 94.3834 178.869 101.412 186.338 102.622C193.807 103.833 200.844 98.767 202.056 91.3075Z" fill="#9E616A"/>
<path d="M196.544 75.7454C191.522 72.2963 187.1 71.7709 183.468 72.7491C182.997 72.0217 182.337 71.4361 181.558 71.0552C178.725 63.9258 170.104 59.6443 162.705 61.7256C155.259 63.8204 150.121 72.0587 151.522 79.6576C152.39 84.3677 155.358 88.4464 156.552 93.085C158.863 102.064 153.226 112.35 144.407 115.245C152.757 116.919 161.948 111.825 164.943 103.863C166.398 99.9954 166.486 95.7728 166.671 91.6454C166.72 88.7965 167.069 85.9607 167.714 83.1851C168.033 81.9399 168.485 80.7322 169.062 79.5828C170.317 77.0561 172.402 75.0358 174.969 73.859C174.739 74.569 174.681 75.3234 174.801 76.0599C174.921 76.7965 175.214 77.494 175.657 78.0951C173.698 80.545 172.632 83.1946 172.632 84.7813C168.565 92.2068 174.382 98.585 181.817 102.648C184.782 104.277 188.206 104.873 191.549 104.342L191.86 103.016L192.281 104.211L193.688 108.216C195.311 109 196.92 109.859 198.514 110.794C197.908 107.952 197.418 105.116 197.081 102.342C196.614 98.5677 198.242 92.9481 199.416 89.5307C200.144 87.4245 200.518 85.2123 200.522 82.9841V82.8867L201.665 86.5547L205.828 84.7812C205.053 80.3449 205.828 75.3086 196.544 75.7454Z" fill="#2F2E41"/>
<path d="M367.734 317H63.266C63.0971 316.999 62.9354 316.932 62.8162 316.812C62.6971 316.692 62.6302 316.53 62.6302 316.362C62.6302 316.193 62.6971 316.031 62.8162 315.912C62.9354 315.792 63.0971 315.724 63.266 315.724H367.734C367.903 315.724 368.065 315.792 368.184 315.912C368.303 316.031 368.37 316.193 368.37 316.362C368.37 316.53 368.303 316.692 368.184 316.812C368.065 316.932 367.903 316.999 367.734 317V317Z" fill="#CCCCCC"/>
<path d="M143.141 189.352C149.902 189.352 155.384 183.877 155.384 177.124C155.384 170.37 149.902 164.896 143.141 164.896C136.379 164.896 130.897 170.37 130.897 177.124C130.897 183.877 136.379 189.352 143.141 189.352Z" fill="#E6E6E6"/>
<path d="M327.356 170.096H284.412C283.085 170.094 281.813 169.567 280.875 168.63C279.936 167.693 279.409 166.422 279.407 165.097V141.737C279.409 140.411 279.936 139.141 280.875 138.204C281.813 137.266 283.085 136.739 284.412 136.738H327.356C328.683 136.739 329.955 137.266 330.893 138.204C331.831 139.141 332.359 140.411 332.361 141.737V165.097C332.359 166.422 331.832 167.693 330.893 168.63C329.955 169.567 328.683 170.094 327.356 170.096V170.096Z" fill="#F2F2F2"/>
<path d="M327.988 160.607C331.579 160.607 334.49 157.7 334.49 154.113C334.49 150.527 331.579 147.62 327.988 147.62C324.397 147.62 321.486 150.527 321.486 154.113C321.486 157.7 324.397 160.607 327.988 160.607Z" fill="#6C63FF"/>
<path d="M330.688 153.568H328.478V151.36C328.478 151.292 328.464 151.224 328.438 151.161C328.412 151.098 328.373 151.041 328.325 150.993C328.277 150.944 328.22 150.906 328.156 150.88C328.093 150.854 328.026 150.841 327.957 150.841C327.819 150.841 327.687 150.895 327.589 150.993C327.492 151.09 327.437 151.222 327.437 151.36V153.568H325.227C325.089 153.568 324.956 153.623 324.859 153.72C324.761 153.818 324.706 153.95 324.706 154.088V154.088C324.706 154.156 324.72 154.223 324.746 154.286C324.772 154.349 324.81 154.407 324.859 154.455C324.907 154.503 324.964 154.541 325.027 154.568C325.091 154.594 325.158 154.607 325.227 154.607H327.437V156.815C327.437 156.883 327.451 156.951 327.477 157.014C327.503 157.077 327.541 157.134 327.59 157.182C327.638 157.231 327.695 157.269 327.758 157.295C327.821 157.321 327.889 157.335 327.957 157.335V157.335C328.095 157.335 328.228 157.28 328.325 157.182C328.423 157.085 328.478 156.953 328.478 156.815V154.607H330.688C330.826 154.607 330.958 154.552 331.056 154.455C331.154 154.358 331.208 154.225 331.208 154.088V154.088C331.208 154.019 331.195 153.952 331.169 153.889C331.143 153.826 331.104 153.768 331.056 153.72C331.008 153.672 330.95 153.634 330.887 153.608C330.824 153.581 330.757 153.568 330.688 153.568L330.688 153.568Z" fill="white"/>
<path d="M344.851 163.467H309.462C307.96 163.465 306.52 162.868 305.458 161.808C304.396 160.747 303.798 159.309 303.796 157.809V136.71C303.797 136.434 303.907 136.17 304.103 135.975C304.299 135.78 304.564 135.67 304.84 135.67C305.117 135.67 305.382 135.78 305.577 135.975C305.773 136.17 305.883 136.434 305.884 136.71V142.361L346.99 146.093C347.811 146.107 348.594 146.443 349.17 147.028C349.746 147.613 350.069 148.4 350.07 149.22C350.07 149.284 350.064 149.349 350.052 149.412L347.98 160.446C347.952 161.256 347.61 162.024 347.026 162.587C346.442 163.151 345.663 163.466 344.851 163.467V163.467ZM305.884 144.454V157.809C305.885 158.756 306.262 159.664 306.933 160.334C307.604 161.004 308.513 161.381 309.462 161.382H344.851C345.128 161.382 345.393 161.272 345.589 161.076C345.784 160.881 345.894 160.616 345.895 160.339C345.895 160.275 345.901 160.211 345.913 160.147L347.979 149.139C347.959 148.878 347.84 148.633 347.647 148.455C347.454 148.277 347.201 148.178 346.938 148.177C346.907 148.177 346.875 148.176 346.844 148.173L305.884 144.454Z" fill="#6C63FF"/>
<path d="M300.058 173.196C301.019 173.196 301.798 172.419 301.798 171.459C301.798 170.499 301.019 169.722 300.058 169.722C299.097 169.722 298.319 170.499 298.319 171.459C298.319 172.419 299.097 173.196 300.058 173.196Z" fill="#6C63FF"/>
<path d="M343.459 173.196C344.42 173.196 345.199 172.419 345.199 171.459C345.199 170.499 344.42 169.722 343.459 169.722C342.499 169.722 341.72 170.499 341.72 171.459C341.72 172.419 342.499 173.196 343.459 173.196Z" fill="#6C63FF"/>
<path d="M345.199 169.722H298.666C298.39 169.722 298.124 169.612 297.928 169.416C297.733 169.221 297.623 168.956 297.623 168.679C297.623 168.403 297.733 168.138 297.928 167.942C298.124 167.747 298.39 167.637 298.666 167.637H345.199C345.476 167.637 345.741 167.747 345.937 167.942C346.133 168.138 346.243 168.403 346.243 168.679C346.243 168.956 346.133 169.221 345.937 169.416C345.741 169.612 345.476 169.722 345.199 169.722V169.722Z" fill="#6C63FF"/>
<path d="M307.624 137.405H298.578C298.301 137.404 298.036 137.294 297.841 137.099C297.646 136.903 297.536 136.639 297.536 136.363C297.536 136.086 297.646 135.822 297.841 135.626C298.036 135.431 298.301 135.321 298.578 135.32H307.624C307.9 135.321 308.165 135.431 308.36 135.626C308.555 135.822 308.665 136.086 308.665 136.363C308.665 136.639 308.555 136.903 308.36 137.099C308.165 137.294 307.9 137.404 307.624 137.405V137.405Z" fill="#6C63FF"/>
<path d="M314.88 169.191C314.631 169.191 314.39 169.102 314.201 168.939L307.34 163.051C307.236 162.962 307.15 162.853 307.088 162.731C307.026 162.608 306.989 162.475 306.978 162.338C306.968 162.202 306.984 162.064 307.027 161.934C307.07 161.804 307.138 161.683 307.227 161.579C307.317 161.475 307.426 161.39 307.548 161.328C307.671 161.266 307.804 161.229 307.941 161.219C308.078 161.209 308.215 161.226 308.346 161.269C308.476 161.312 308.597 161.38 308.701 161.469L315.561 167.358C315.723 167.496 315.838 167.681 315.891 167.887C315.945 168.094 315.934 168.311 315.86 168.511C315.785 168.71 315.652 168.883 315.477 169.004C315.302 169.126 315.094 169.191 314.88 169.191V169.191Z" fill="#6C63FF"/>
<path d="M316.326 162.826C316.189 162.826 316.053 162.799 315.927 162.747C315.8 162.695 315.685 162.618 315.588 162.521C315.491 162.424 315.414 162.309 315.362 162.183C315.309 162.056 315.282 161.921 315.282 161.784V145.05C315.282 144.773 315.392 144.508 315.588 144.313C315.784 144.117 316.049 144.007 316.326 144.007C316.603 144.007 316.868 144.117 317.064 144.313C317.26 144.508 317.37 144.773 317.37 145.05V161.784C317.37 161.921 317.343 162.056 317.29 162.183C317.238 162.309 317.161 162.424 317.064 162.521C316.967 162.618 316.852 162.695 316.726 162.747C316.599 162.799 316.463 162.826 316.326 162.826H316.326Z" fill="#6C63FF"/>
<path d="M338.375 162.826C338.237 162.826 338.102 162.799 337.975 162.747C337.848 162.695 337.733 162.618 337.636 162.521C337.54 162.424 337.463 162.309 337.41 162.183C337.358 162.056 337.331 161.921 337.331 161.784V146.44C337.331 146.164 337.442 145.899 337.637 145.704C337.833 145.509 338.098 145.4 338.375 145.4C338.651 145.4 338.916 145.509 339.112 145.704C339.307 145.899 339.418 146.164 339.418 146.44V161.784C339.418 161.921 339.391 162.056 339.339 162.183C339.286 162.309 339.21 162.424 339.113 162.521C339.016 162.618 338.901 162.695 338.774 162.747C338.647 162.799 338.512 162.826 338.375 162.826H338.375Z" fill="#6C63FF"/>
</g>
<defs>
<clipPath id="clip0">
<rect width="431" height="317" fill="white"/>
</clipPath>
</defs>
</svg>
